<?xml version="1.0" encoding="utf-8"?>
<!-- Generator: Adobe Illustrator 16.0.4, SVG Export Plug-In . SVG Version: 6.00 Build 0)  -->
<!DOCTYPE svg PUBLIC "-//W3C//DTD SVG 1.1//EN" "http://www.w3.org/Graphics/SVG/1.1/DTD/svg11.dtd">
<svg version="1.1" id="Layer_1" xmlns="http://www.w3.org/2000/svg" xmlns:xlink="http://www.w3.org/1999/xlink" x="0px" y="0px"
	 width="480px" height="480px" viewBox="0 0 480 480" enable-background="new 0 0 480 480" xml:space="preserve">
<g>
	<path fill="#FFFFFF" d="M239.988,12.616c-125.581,0-227.376,101.811-227.403,227.399
		c0.027,125.564,101.822,227.367,227.403,227.367c125.604,0,227.406-101.803,227.426-227.367
		C467.395,114.427,365.592,12.616,239.988,12.616z M376.896,376.889c-35.109,35.045-83.389,56.676-136.908,56.695
		c-53.509-0.02-101.8-21.65-136.878-56.695c-35.044-35.102-56.676-83.365-56.691-136.873
		c0.016-53.505,21.647-101.796,56.691-136.905c35.078-35.036,83.369-56.66,136.878-56.66c53.52,0,101.799,21.624,136.877,56.66
		c35.068,35.109,56.699,83.361,56.699,136.905C433.564,293.523,411.934,341.787,376.896,376.889z"/>
	<path fill="#FFFFFF" d="M198.552,138.447c0,10.092-8.193,18.305-18.297,18.305c-10.123,0-18.316-8.213-18.316-18.305
		c0-10.107,8.193-18.312,18.316-18.312C190.358,120.135,198.552,128.34,198.552,138.447"/>
	<path fill="#FFFFFF" d="M318.076,138.447c0,10.092-8.209,18.305-18.328,18.305c-10.127,0-18.309-8.213-18.309-18.305
		c0-10.107,8.182-18.312,18.309-18.312C309.867,120.135,318.076,128.34,318.076,138.447"/>
	<path fill="#FFFFFF" d="M114.744,340.695c-2-1.984-2.771-4.244-1.006-7.48l11.474-20.248c1.988-3.24,5.993-3.24,8.495-1.51
		c6.976,4.752,19.702,13.779,35.431,13.779c9.967,0,17.212-6.24,17.212-14.961c0-10.523-9.234-17.244-25.715-25.238
		c-24.188-11.717-48.392-25.211-48.392-55.16c0-24.678,19.205-49.638,57.654-49.638c25.949,0,45.905,13.239,53.38,18.731
		c2.986,1.742,2.5,6.229,1.486,7.981l-12.711,19.241c-1.742,2.709-5.992,4.689-10.983,1.715
		c-5.731-3.967-20.446-13.467-33.689-13.467c-10.487,0-15.216,6.482-15.216,13.713c0,8.236,9.72,14.727,27.206,23.225
		c21.961,10.707,50.378,22.943,50.378,56.844c0,25.73-22.186,51.678-58.872,51.678C138.451,359.9,120.495,346.43,114.744,340.695"/>
	<path fill="#FFFFFF" d="M365.213,340.695c2.012-1.984,2.752-4.244,1.002-7.48l-11.463-20.248c-2.031-3.24-6.012-3.24-8.498-1.51
		c-7.004,4.752-19.711,13.779-35.416,13.779c-9.967,0-17.248-6.24-17.248-14.961c0-10.523,9.23-17.244,25.715-25.238
		c24.229-11.717,48.404-25.211,48.404-55.16c0-24.678-19.197-49.638-57.635-49.638c-25.941,0-45.91,13.239-53.375,18.731
		c-3.002,1.742-2.498,6.229-1.508,7.981l12.727,19.241c1.723,2.709,5.994,4.689,10.977,1.715
		c5.736-3.967,20.451-13.467,33.686-13.467c10.467,0,15.213,6.482,15.213,13.713c0,8.236-9.725,14.727-27.188,23.225
		c-21.98,10.707-50.385,22.943-50.385,56.844c0,25.73,22.184,51.678,58.871,51.678C341.51,359.9,359.465,346.43,365.213,340.695"/>
</g>
</svg>
