<?xml version="1.0" encoding="utf-8"?>
<!-- Generator: Adobe Illustrator 16.0.4, SVG Export Plug-In . SVG Version: 6.00 Build 0)  -->
<!DOCTYPE svg PUBLIC "-//W3C//DTD SVG 1.1//EN" "http://www.w3.org/Graphics/SVG/1.1/DTD/svg11.dtd">
<svg version="1.1" id="Layer_1" xmlns="http://www.w3.org/2000/svg" xmlns:xlink="http://www.w3.org/1999/xlink" x="0px" y="0px"
	 width="1280px" height="800px" viewBox="0 0 1280 800" enable-background="new 0 0 1280 800" xml:space="preserve">
<path fill="#FFFFFF" d="M762.72,326.824h27.706l44.98,70.079l44.98-70.079h27.706v147.981h-26.076V368.872l-46.61,69.753h-0.979
	l-46.284-69.427v105.607H762.72V326.824z"/>
<path fill="#FFFFFF" d="M958.615,326.824h26.075v147.981h-26.075V326.824z"/>
<path fill="#FFFFFF" d="M1034.561,326.824h26.076v124.513h77.901v23.469h-103.978V326.824z"/>
<path fill="#FFFFFF" d="M1176.022,326.824h26.076v124.513H1280v23.469h-103.978V326.824z"/>
<polygon fill="#FFFFFF" points="0,253.16 221.319,253.16 221.319,274.021 22.49,274.021 22.49,324.869 116.689,324.869 
	116.689,345.403 22.49,345.403 22.49,473.501 0,473.501 "/>
<path fill="#FFFFFF" d="M144.721,400.814v-0.651c0-41.722,32.595-76.924,76.924-76.924c44.003,0,76.598,34.876,76.598,76.271v0.652
	c0,41.722-32.595,76.924-77.25,76.924C176.664,477.087,144.721,442.21,144.721,400.814z M275.752,400.814v-0.651
	c0-31.617-23.468-57.367-54.759-57.367c-31.943,0-53.782,25.75-53.782,57.041v0.652c0,31.616,23.468,57.366,54.434,57.366
	C253.262,457.204,275.752,431.78,275.752,400.814z"/>
<path fill="#FFFFFF" d="M328.556,400.814v-0.651c0-41.722,32.595-76.924,75.294-76.924c28.031,0,45.307,11.734,58.996,26.076
	l-14.667,15.319c-11.734-12.387-24.772-22.165-44.655-22.165c-29.987,0-52.804,25.425-52.804,57.041v0.652
	c0,31.942,23.468,57.367,54.107,57.367c18.905,0,33.247-9.453,44.98-21.839l14.017,13.038
	c-14.668,16.623-32.595,28.357-59.975,28.357C361.151,477.087,328.556,441.885,328.556,400.814z"/>
<path fill="#FFFFFF" d="M486.967,400.814v-0.651c0-41.722,32.595-76.924,76.924-76.924c44.004,0,76.599,34.876,76.599,76.271v0.652
	c0,41.722-32.595,76.924-77.25,76.924C518.91,477.087,486.967,442.21,486.967,400.814z M617.673,400.814v-0.651
	c0-31.617-23.469-57.367-54.76-57.367c-31.943,0-53.781,25.75-53.781,57.041v0.652c0,31.616,23.468,57.366,54.434,57.366
	C595.508,457.204,617.673,431.78,617.673,400.814z"/>
<polygon fill="#FFFFFF" points="293.354,253.16 293.354,274.021 682.21,274.021 682.21,525.979 0,525.979 0,546.84 682.21,546.84 
	702.745,546.84 702.745,525.979 702.745,274.021 702.745,253.16 "/>
</svg>
