<svg xmlns="http://www.w3.org/2000/svg" viewBox="0 0 17.7 16.6"><defs><style>.cls-1{fill:#939598;}</style></defs><title>Asset 4CART</title><g id="Layer_2" data-name="Layer 2"><g id="Layer_1-2" data-name="Layer 1"><path class="cls-1" d="M16.5,11.8a1.6,1.6,0,0,1-1.3.3H7.6c-2,0-2.2-.1-2.5-2.1s-.6-4.7-.9-7S3.9.8,1.7.8C1.1.8,0,1.1,0,.4S1.1.1,1.7,0H3.1c1,0,1.5.6,1.6,1.6.3,2.7.7,5.4,1,8.1a1.7,1.7,0,0,0,2,1.7H15C15.5,11.4,16.1,11.3,16.5,11.8Z"/><path class="cls-1" d="M11.5,4.5H9.4c-.2,0-.4-.1-.4-.2s.2-.4.4-.4h4c.2,0,.4.1.4.3s-.2.3-.4.3Z"/><path class="cls-1" d="M6.9,16.6a1.2,1.2,0,0,1-1.1-1,1,1,0,0,1,1.1-1.1.9.9,0,0,1,1,1A1.1,1.1,0,0,1,6.9,16.6Z"/><path class="cls-1" d="M16.7,14.5c.6.1,1,.4,1,1a.9.9,0,0,1-1.1,1,1,1,0,0,1-1-1.1A1,1,0,0,1,16.7,14.5Z"/></g></g></svg>