<svg xmlns="http://www.w3.org/2000/svg" viewBox="0 0 45.8 19.2"><defs><style>.cls-1{fill:#231f20;}</style></defs><title>Asset 5FOCOLOGO</title><g id="Layer_2" data-name="Layer 2"><g id="Layer_1-2" data-name="Layer 1"><polygon class="cls-1" points="0 0 14.4 0 14.4 1.4 1.5 1.4 1.5 4.7 7.6 4.7 7.6 6 1.5 6 1.5 14.4 0 14.4 0 0"/><path class="cls-1" d="M9.4,9.6h0a5,5,0,0,1,5.1-5,4.8,4.8,0,0,1,4.9,4.9h0a5,5,0,0,1-10,0Zm8.6,0h0a3.7,3.7,0,0,0-3.6-3.8,3.5,3.5,0,0,0-3.5,3.7h0a3.6,3.6,0,1,0,7.1,0Z"/><path class="cls-1" d="M21.4,9.6h0a5,5,0,0,1,5-5,4.7,4.7,0,0,1,3.8,1.7l-1,1a3.8,3.8,0,0,0-2.9-1.5,3.6,3.6,0,0,0-3.4,3.7h0a3.5,3.5,0,0,0,3.5,3.7,4.1,4.1,0,0,0,3-1.4l.9.8a5,5,0,0,1-8.9-3.1Z"/><path class="cls-1" d="M31.8,9.6h0a5,5,0,0,1,10-.1h0a5,5,0,0,1-5.1,5A4.9,4.9,0,0,1,31.8,9.6Zm8.5,0h0a3.6,3.6,0,0,0-3.6-3.8,3.6,3.6,0,0,0-3.5,3.7h0a3.6,3.6,0,1,0,7.1,0Z"/><polygon class="cls-1" points="19.1 0 19.1 1.4 44.5 1.4 44.5 17.8 0 17.8 0 19.2 44.5 19.2 45.8 19.2 45.8 17.8 45.8 1.4 45.8 0 19.1 0"/></g></g></svg>