<?xml version="1.0" encoding="utf-8"?>
<!-- Generator: Adobe Illustrator 22.0.1, SVG Export Plug-In . SVG Version: 6.00 Build 0)  -->
<svg version="1.1" id="Layer_1" xmlns="http://www.w3.org/2000/svg" xmlns:xlink="http://www.w3.org/1999/xlink" x="0px" y="0px"
	 viewBox="0 0 122.7 19.2" style="enable-background:new 0 0 122.7 19.2;" xml:space="preserve">
<style type="text/css">
	.st0{fill:#231F20;}
</style>
<g>
	<polygon class="st0" points="0,0 14.4,0 14.4,1.4 1.5,1.4 1.5,4.7 7.6,4.7 7.6,6 1.5,6 1.5,14.4 0,14.4 	"/>
	<path class="st0" d="M9.4,9.6L9.4,9.6c0-2.7,2.1-5,5-5s5,2.2,5,5v0c0,2.7-2.2,5-5,5C11.5,14.6,9.4,12.3,9.4,9.6z M18,9.6L18,9.6
		c0-2.1-1.6-3.8-3.6-3.8c-2.1,0-3.5,1.7-3.5,3.7v0c0,2.1,1.5,3.8,3.5,3.8C16.5,13.3,18,11.6,18,9.6z"/>
	<path class="st0" d="M21.4,9.6L21.4,9.6c0-2.7,2.1-5,4.9-5c1.8,0,2.9,0.8,3.8,1.7l-1,1c-0.8-0.8-1.6-1.5-2.9-1.5
		c-2,0-3.4,1.6-3.4,3.7v0c0,2.1,1.5,3.8,3.5,3.8c1.2,0,2.2-0.6,2.9-1.4l0.9,0.9c-1,1.1-2.1,1.9-3.9,1.9
		C23.5,14.6,21.4,12.3,21.4,9.6z"/>
	<path class="st0" d="M31.7,9.6L31.7,9.6c0-2.7,2.1-5,5-5s5,2.2,5,5v0c0,2.7-2.2,5-5,5C33.8,14.6,31.7,12.3,31.7,9.6z M40.3,9.6
		L40.3,9.6c0-2.1-1.6-3.8-3.6-3.8c-2.1,0-3.5,1.7-3.5,3.7v0c0,2.1,1.5,3.8,3.5,3.8C38.8,13.3,40.3,11.6,40.3,9.6z"/>
	<polygon class="st0" points="19.1,0 19.1,1.4 44.5,1.4 44.5,17.8 0,17.8 0,19.1 44.5,19.1 45.8,19.1 45.8,17.8 45.8,1.4 45.8,0 	
		"/>
</g>
<title>Asset 1FOCOGRINDERSLOGO</title>
<g id="WEB">
	<path class="st0" d="M49.3,9.7L49.3,9.7c0.1-2.9,2.5-5.1,5.3-5.1c1.2,0,2.4,0.5,3.4,1.4l-1.1,1.2c-0.7-0.7-1.7-1-2.7-1
		c-1.8,0.1-3.2,1.6-3.1,3.4l0,0c-0.1,1.8,1.3,3.4,3.1,3.5c0.1,0,0.1,0,0.2,0c0.8,0,1.6-0.2,2.3-0.7v-1.9h-2.5V9.1h4.2v4
		c-1.2,1-2.6,1.5-4.1,1.5c-2.6,0.1-4.9-1.9-5-4.6C49.3,9.9,49.3,9.8,49.3,9.7z"/>
	<path class="st0" d="M60.6,4.8h4.3c1,0,2,0.3,2.8,1c0.5,0.6,0.8,1.3,0.8,2.1l0,0c0,1.4-0.9,2.6-2.3,2.9l2.6,3.7h-2l-2.4-3.4h-2.1
		v3.4h-1.7V4.8z M64.8,9.6C66,9.6,66.7,9,66.7,8l0,0c0-1.1-0.7-1.6-2-1.6h-2.4v3.2H64.8z"/>
	<path class="st0" d="M70.6,4.8h1.7v9.7h-1.7V4.8z"/>
	<path class="st0" d="M74.9,4.8h1.6l5.2,6.7V4.8h1.6v9.7h-1.4l-5.3-6.9v6.9h-1.7V4.8z"/>
	<path class="st0" d="M85.8,4.8h3.6c3.1,0,5.2,2.1,5.2,4.8l0,0c0,2.7-2.2,4.9-4.9,4.9c-0.1,0-0.2,0-0.3,0h-3.6V4.8z M89.4,12.9
		c1.7,0.2,3.2-1.1,3.4-2.8c0-0.1,0-0.3,0-0.4l0,0c0.1-1.7-1.3-3.1-3-3.2c-0.1,0-0.3,0-0.4,0h-1.9V13L89.4,12.9z"/>
	<path class="st0" d="M96.6,4.8h7.2v1.5h-5.5v2.5h4.9v1.6h-4.9v2.5h5.5v1.6h-7.2V4.8z"/>
	<path class="st0" d="M105.9,4.8h4.3c1,0,2,0.3,2.8,1c0.5,0.6,0.8,1.3,0.8,2.1l0,0c0,1.4-1,2.7-2.4,2.9l2.7,3.7h-2l-2.4-3.4h-2.1
		v3.4h-1.7L105.9,4.8z M110,9.6c1.3,0,2-0.6,2-1.6l0,0c0-1.1-0.7-1.6-2-1.6h-2.4v3.2H110z"/>
	<path class="st0" d="M115.2,13.1l1-1.3c0.8,0.8,1.9,1.3,3.1,1.3c1,0,1.7-0.5,1.7-1.2l0,0c0-0.7-0.4-1.1-2.2-1.5s-3.2-1.1-3.2-2.9
		l0,0c0-1.7,1.4-2.8,3.3-2.8c1.3,0,2.5,0.4,3.5,1.2l-0.9,1.3c-0.8-0.6-1.7-1-2.7-1c-0.9,0-1.5,0.5-1.5,1.1l0,0
		c0,0.8,0.4,1.1,2.3,1.6s3.1,1.2,3.1,2.8l0,0c0,1.8-1.5,2.9-3.5,2.9C117.7,14.6,116.3,14.1,115.2,13.1z"/>
</g>
</svg>
