<?xml version="1.0" encoding="utf-8"?>
<!-- Generator: Adobe Illustrator 22.1.0, SVG Export Plug-In . SVG Version: 6.00 Build 0)  -->
<svg version="1.1" id="Layer_1" xmlns="http://www.w3.org/2000/svg" xmlns:xlink="http://www.w3.org/1999/xlink" x="0px" y="0px"
	 viewBox="0 0 392.7 90.1" style="enable-background:new 0 0 392.7 90.1;" xml:space="preserve">
<style type="text/css">
	.st0{fill:#231F20;}
	.st1{fill:#221F1F;}
</style>
<path class="st0" d="M234,22.6h8.5l13.8,21.5l13.8-21.5h8.5V68h-8V35.5l-14.3,21.4h-0.3l-14.2-21.3V68H234V22.6z"/>
<path class="st0" d="M294.1,22.6h8V68h-8V22.6z"/>
<path class="st0" d="M317.4,22.6h8v38.2h23.9V68h-31.9V22.6z"/>
<path class="st0" d="M360.8,22.6h8v38.2h23.9V68h-31.9V22.6z"/>
<polygon class="st1" points="0,0 67.9,0 67.9,6.4 6.9,6.4 6.9,22 35.8,22 35.8,28.3 6.9,28.3 6.9,67.6 0,67.6 "/>
<path class="st1" d="M44.4,45.3v-0.2c0-12.8,10-23.6,23.6-23.6c13.5,0,23.5,10.7,23.5,23.4v0.2c0,12.8-10,23.6-23.7,23.6
	C54.2,68.7,44.4,58,44.4,45.3z M84.6,45.3v-0.2c0-9.7-7.2-17.6-16.8-17.6c-9.8,0-16.5,7.9-16.5,17.5v0.2c0,9.7,7.2,17.6,16.7,17.6
	C77.7,62.6,84.6,54.8,84.6,45.3z"/>
<path class="st1" d="M100.8,45.3v-0.2c0-12.8,10-23.6,23.1-23.6c8.6,0,13.9,3.6,18.1,8l-4.5,4.7c-3.6-3.8-7.6-6.8-13.7-6.8
	c-9.2,0-16.2,7.8-16.2,17.5v0.2c0,9.8,7.2,17.6,16.6,17.6c5.8,0,10.2-2.9,13.8-6.7l4.3,4c-4.5,5.1-10,8.7-18.4,8.7
	C110.8,68.7,100.8,57.9,100.8,45.3z"/>
<path class="st1" d="M149.4,45.3v-0.2c0-12.8,10-23.6,23.6-23.6c13.5,0,23.5,10.7,23.5,23.4v0.2c0,12.8-10,23.6-23.7,23.6
	C159.2,68.7,149.4,58,149.4,45.3z M189.5,45.3v-0.2c0-9.7-7.2-17.6-16.8-17.6c-9.8,0-16.5,7.9-16.5,17.5v0.2
	c0,9.7,7.2,17.6,16.7,17.6C182.7,62.6,189.5,54.8,189.5,45.3z"/>
<polygon class="st1" points="90,0 90,6.4 209.3,6.4 209.3,83.7 0,83.7 0,90.1 209.3,90.1 215.6,90.1 215.6,83.7 215.6,6.4 215.6,0 
	"/>
</svg>
