<svg xmlns="http://www.w3.org/2000/svg" viewBox="0 0 122.7 19.2"><defs><style>.cls-1{fill:#231f20;}</style></defs><title>Asset 1FOCOGRINDERSLOGO</title><g id="Layer_2" data-name="Layer 2"><g id="WEB"><path class="cls-1" d="M49.3,9.7h0A5.2,5.2,0,0,1,58,6L56.9,7.2a3.7,3.7,0,0,0-2.7-1,3.3,3.3,0,0,0-3.1,3.4h0a3.3,3.3,0,0,0,3.3,3.5,4.2,4.2,0,0,0,2.3-.7V10.5H54.2V9.1h4.2v4a6.6,6.6,0,0,1-4.1,1.5A4.8,4.8,0,0,1,49.3,9.7Z"/><path class="cls-1" d="M60.6,4.8h4.3a4.1,4.1,0,0,1,2.8,1,2.9,2.9,0,0,1,.8,2.1h0a2.9,2.9,0,0,1-2.3,2.9l2.6,3.7h-2l-2.4-3.4H62.3v3.4H60.6Zm4.2,4.8C66,9.6,66.7,9,66.7,8h0c0-1.1-.7-1.6-2-1.6H62.3V9.6Z"/><path class="cls-1" d="M70.6,4.8h1.7v9.7H70.6Z"/><path class="cls-1" d="M74.9,4.8h1.6l5.2,6.7V4.8h1.6v9.7H81.9L76.6,7.6v6.9H74.9Z"/><path class="cls-1" d="M85.8,4.8h3.6c3.1,0,5.2,2.1,5.2,4.8h0a4.9,4.9,0,0,1-5.2,4.9H85.8Zm3.6,8.1a3.1,3.1,0,0,0,3.4-3.2h0a3.1,3.1,0,0,0-3.4-3.2H87.5v6.5Z"/><path class="cls-1" d="M96.6,4.8h7.2V6.3H98.3V8.8h4.9v1.6H98.3v2.5h5.5v1.6H96.6Z"/><path class="cls-1" d="M105.9,4.8h4.3a4.1,4.1,0,0,1,2.8,1,2.9,2.9,0,0,1,.8,2.1h0a2.9,2.9,0,0,1-2.4,2.9l2.7,3.7h-2l-2.4-3.4h-2.1v3.4h-1.7ZM110,9.6c1.3,0,2-.6,2-1.6h0c0-1.1-.7-1.6-2-1.6h-2.4V9.6Z"/><path class="cls-1" d="M115.2,13.1l1-1.3a4.6,4.6,0,0,0,3.1,1.3c1,0,1.7-.5,1.7-1.2h0c0-.7-.4-1.1-2.2-1.5s-3.2-1.1-3.2-2.9h0c0-1.7,1.4-2.8,3.3-2.8a5.3,5.3,0,0,1,3.5,1.2l-.9,1.3a4.3,4.3,0,0,0-2.7-1c-.9,0-1.5.5-1.5,1.1h0c0,.8.4,1.1,2.3,1.6s3.1,1.2,3.1,2.8h0c0,1.8-1.5,2.9-3.5,2.9A6,6,0,0,1,115.2,13.1Z"/><polygon class="cls-1" points="0 0 14.4 0 14.4 1.4 1.5 1.4 1.5 4.7 7.6 4.7 7.6 6 1.5 6 1.5 14.4 0 14.4 0 0"/><path class="cls-1" d="M9.4,9.6h0a5,5,0,0,1,5.1-5,4.8,4.8,0,0,1,4.9,4.9h0a5,5,0,0,1-10,0Zm8.6,0h0a3.7,3.7,0,0,0-3.6-3.8,3.5,3.5,0,0,0-3.5,3.7h0a3.6,3.6,0,1,0,7.1,0Z"/><path class="cls-1" d="M21.4,9.6h0a5,5,0,0,1,5-5,4.7,4.7,0,0,1,3.8,1.7l-1,1a3.8,3.8,0,0,0-2.9-1.5,3.6,3.6,0,0,0-3.4,3.7h0a3.5,3.5,0,0,0,3.5,3.7,4.1,4.1,0,0,0,3-1.4l.9.8a5,5,0,0,1-8.9-3.1Z"/><path class="cls-1" d="M31.8,9.6h0a5,5,0,0,1,10-.1h0a5,5,0,0,1-5.1,5A4.9,4.9,0,0,1,31.8,9.6Zm8.5,0h0a3.6,3.6,0,0,0-3.6-3.8,3.6,3.6,0,0,0-3.5,3.7h0a3.6,3.6,0,1,0,7.1,0Z"/><polygon class="cls-1" points="19.1 0 19.1 1.4 44.5 1.4 44.5 17.8 0 17.8 0 19.2 44.5 19.2 45.8 19.2 45.8 17.8 45.8 1.4 45.8 0 19.1 0"/></g></g></svg>