<?xml version="1.0" encoding="utf-8"?>
<!-- Generator: Adobe Illustrator 22.0.1, SVG Export Plug-In . SVG Version: 6.00 Build 0)  -->
<svg version="1.1" id="Layer_1" xmlns="http://www.w3.org/2000/svg" xmlns:xlink="http://www.w3.org/1999/xlink" x="0px" y="0px"
	 viewBox="0 0 100.1 41.8" style="enable-background:new 0 0 100.1 41.8;" xml:space="preserve">
<style type="text/css">
	.st0{fill:#231F20;}
</style>
<g>
	<polygon class="st0" points="0,0 31.5,0 31.5,3 3.2,3 3.2,10.2 16.6,10.2 16.6,13.2 3.2,13.2 3.2,31.4 0,31.4 	"/>
	<path class="st0" d="M20.6,21L20.6,21c0-6,4.6-11,10.9-11s10.9,4.9,10.9,10.9V21c0,5.9-4.7,10.9-11,10.9
		C25.2,31.9,20.6,26.9,20.6,21z M39.3,21L39.3,21c0-4.6-3.4-8.3-7.8-8.3c-4.5,0-7.7,3.7-7.7,8.1v0.1c0,4.5,3.3,8.2,7.7,8.2
		C36.1,29.1,39.3,25.4,39.3,21z"/>
	<path class="st0" d="M46.8,21L46.8,21c0-6,4.6-11,10.7-11c4,0,6.4,1.7,8.4,3.7l-2.1,2.2c-1.7-1.7-3.5-3.2-6.4-3.2
		c-4.3,0-7.5,3.6-7.5,8.1v0.1c0,4.5,3.3,8.2,7.7,8.2c2.7,0,4.7-1.3,6.4-3.1l2,1.9c-2.1,2.4-4.6,4.1-8.6,4.1
		C51.4,31.9,46.8,26.9,46.8,21z"/>
	<path class="st0" d="M69.3,21L69.3,21c0-6,4.6-11,10.9-11s10.9,4.9,10.9,10.9V21c0,5.9-4.7,10.9-11,10.9
		C73.9,31.9,69.3,26.9,69.3,21z M88,21L88,21c0-4.6-3.4-8.3-7.8-8.3c-4.5,0-7.7,3.7-7.7,8.1v0.1c0,4.5,3.3,8.2,7.7,8.2
		C84.8,29.1,88,25.4,88,21z"/>
	<polygon class="st0" points="41.8,0 41.8,3 97.2,3 97.2,38.9 0,38.9 0,41.8 97.2,41.8 100.1,41.8 100.1,38.9 100.1,3 100.1,0 	"/>
</g>
</svg>
