<svg xmlns="http://www.w3.org/2000/svg" viewBox="0 0 642.4 105"><defs><style>.cls-1{fill:#fff;}.cls-2{fill:#be1e2d;}</style></defs><title>Asset 4UNDERCONSTRUCTION</title><g id="Layer_2" data-name="Layer 2"><g id="Layer_2-2" data-name="Layer 2"><rect class="cls-1" x="10.8" y="10.8" width="620.7" height="83.34"/><path class="cls-2" d="M37,67.9a10.9,10.9,0,0,1-4.7-4,12.7,12.7,0,0,1-1.6-6.2,14.8,14.8,0,0,1,.4-3.4l3.6-17.9h9.1L40.3,54.1a13,13,0,0,0-.3,2.6c0,3.3,1.8,5,5.3,5A6.2,6.2,0,0,0,49.9,60a12,12,0,0,0,2.5-5.9L56,36.4h9L61.3,54.7c-1.9,9.7-7.6,14.6-17.1,14.6A17.4,17.4,0,0,1,37,67.9Z"/><path class="cls-2" d="M101.8,36.4,95.4,68.7H87.9L77.2,50.9,73.7,68.7h-9l6.5-32.3h7.5L89.4,54l3.5-17.6Z"/><path class="cls-2" d="M108.3,36.4h14.1A20.6,20.6,0,0,1,131,38a13,13,0,0,1,5.6,4.7,13.4,13.4,0,0,1,1.9,7.2,18.7,18.7,0,0,1-2.5,9.9,17.2,17.2,0,0,1-7.1,6.5,22.6,22.6,0,0,1-10.5,2.4H101.9Zm10.4,25a11.5,11.5,0,0,0,5.7-1.4,10.6,10.6,0,0,0,3.7-3.9,12.8,12.8,0,0,0,1.2-5.6,6.6,6.6,0,0,0-2-5.1,9.3,9.3,0,0,0-6-1.7H116l-3.5,17.7Z"/><path class="cls-2" d="M154,43.4l-1.1,5.5h14.4l-1.4,6.8H151.5l-1.1,5.9h16.9l-1.5,7.1H140l6.4-32.3h25.3l-1.4,7Z"/><path class="cls-2" d="M201.8,54.3a13.1,13.1,0,0,1-6.6,4.7l5.5,9.7h-9.5l-4.8-8.6h-4.6l-1.7,8.6H171l6.4-32.3h13.8q6.2,0,9.6,2.7a9,9,0,0,1,3.4,7.6A12.3,12.3,0,0,1,201.8,54.3Zm-8.2-9.7a5.8,5.8,0,0,0-3.7-1h-4.8L183.2,53h5.4a7.3,7.3,0,0,0,4.7-1.4,5.2,5.2,0,0,0,1.7-4.1A3.3,3.3,0,0,0,193.6,44.6Z"/><path class="cls-2" d="M227.5,67.5a12.9,12.9,0,0,1-7.6-12.4,19.8,19.8,0,0,1,2.5-10,18.4,18.4,0,0,1,7.2-6.9,22.6,22.6,0,0,1,10.5-2.5,19.5,19.5,0,0,1,7.9,1.6,11.6,11.6,0,0,1,5.2,4.5l-6.6,5.3a7.9,7.9,0,0,0-7.1-3.8,10.3,10.3,0,0,0-5.4,1.4,10.5,10.5,0,0,0-3.7,4.1,12,12,0,0,0-1.3,5.7,7.1,7.1,0,0,0,2.1,5.3,8.1,8.1,0,0,0,5.8,1.9,9.9,9.9,0,0,0,7.8-3.7l5.4,5.3a15,15,0,0,1-6.1,4.6,22,22,0,0,1-8,1.4A19.4,19.4,0,0,1,227.5,67.5Z"/><path class="cls-2" d="M260.7,67.5a13.4,13.4,0,0,1-7.5-12.4,18.9,18.9,0,0,1,2.6-10,18.1,18.1,0,0,1,7.1-6.9,22.2,22.2,0,0,1,10.4-2.5,18.7,18.7,0,0,1,8.5,1.8,12.6,12.6,0,0,1,5.6,5.1,13.8,13.8,0,0,1,2,7.3,19.9,19.9,0,0,1-2.6,10,18.8,18.8,0,0,1-7.1,6.9,21.4,21.4,0,0,1-10.5,2.5A19,19,0,0,1,260.7,67.5Zm14.7-7.3a10,10,0,0,0,3.5-4.1,13.2,13.2,0,0,0,1.3-5.6,7,7,0,0,0-2-5.2,7.4,7.4,0,0,0-5.6-2,9.5,9.5,0,0,0-5.4,1.5,10,10,0,0,0-3.5,4.1,11.8,11.8,0,0,0-1.3,5.6,7.2,7.2,0,0,0,2,5.3,7.8,7.8,0,0,0,5.6,1.9A10,10,0,0,0,275.4,60.2Z"/><path class="cls-2" d="M327.9,36.4l-6.4,32.3H314L303.3,50.9l-3.5,17.8h-9l6.5-32.3h7.5L315.5,54,319,36.4Z"/><path class="cls-2" d="M332.4,68.3a16.9,16.9,0,0,1-5.9-2.5l3.6-6.8a18.7,18.7,0,0,0,5.2,2.4,21.6,21.6,0,0,0,5.6.8,9.3,9.3,0,0,0,4.1-.8,2.4,2.4,0,0,0,1.4-2.1,2.1,2.1,0,0,0-1.3-1.8,29,29,0,0,0-4.1-1.3l-5.2-1.7a10.4,10.4,0,0,1-3.6-2.6,6.9,6.9,0,0,1-1.5-4.6,10.5,10.5,0,0,1,1.9-6.1,12.4,12.4,0,0,1,5.4-4,21,21,0,0,1,8.2-1.5,26.9,26.9,0,0,1,6.5.8,14.7,14.7,0,0,1,5.1,2l-3.3,6.8a13.8,13.8,0,0,0-4.1-1.8,15.3,15.3,0,0,0-4.7-.7,8.6,8.6,0,0,0-4.3.9,2.6,2.6,0,0,0-1.5,2.3,1.9,1.9,0,0,0,1.3,1.8,31.2,31.2,0,0,0,4.1,1.4,41.5,41.5,0,0,1,5.2,1.6,10.1,10.1,0,0,1,3.6,2.5,7.3,7.3,0,0,1,1.4,4.5,9.6,9.6,0,0,1-1.9,6,12.6,12.6,0,0,1-5.4,4.1,23.1,23.1,0,0,1-8.2,1.4A26.8,26.8,0,0,1,332.4,68.3Z"/><path class="cls-2" d="M369.2,43.6h-9.9l1.4-7.2h29l-1.5,7.2h-9.9l-5,25.1h-9.1Z"/><path class="cls-2" d="M417.5,54.3a14,14,0,0,1-6.6,4.7l5.5,9.7h-9.6l-4.7-8.6h-4.7l-1.7,8.6h-9.1l6.5-32.3h13.7q6.3,0,9.6,2.7a9,9,0,0,1,3.4,7.6A12.2,12.2,0,0,1,417.5,54.3Zm-8.2-9.7a5.8,5.8,0,0,0-3.7-1h-4.8l-2,9.4h5.5a7.3,7.3,0,0,0,4.7-1.4,5.1,5.1,0,0,0,1.6-4.1A3.2,3.2,0,0,0,409.3,44.6Z"/><path class="cls-2" d="M429.2,67.9a10.9,10.9,0,0,1-4.7-4,12.7,12.7,0,0,1-1.6-6.2,23.8,23.8,0,0,1,.4-3.4l3.6-17.9H436l-3.5,17.7a13,13,0,0,0-.3,2.6c0,3.3,1.8,5,5.3,5a6.2,6.2,0,0,0,4.6-1.7c1.2-1.2,2-3.2,2.5-5.9l3.6-17.7h9l-3.7,18.3c-1.9,9.7-7.6,14.6-17.1,14.6A17.4,17.4,0,0,1,429.2,67.9Z"/><path class="cls-2" d="M466,67.5a12.7,12.7,0,0,1-5.7-5,13.9,13.9,0,0,1-2-7.4,19.9,19.9,0,0,1,2.6-10,18.4,18.4,0,0,1,7.2-6.9,22,22,0,0,1,10.5-2.5,19.5,19.5,0,0,1,7.9,1.6,12.1,12.1,0,0,1,5.2,4.5l-6.6,5.3a8,8,0,0,0-7.1-3.8,9.4,9.4,0,0,0-9.1,5.5,12,12,0,0,0-1.3,5.7,7.1,7.1,0,0,0,2.1,5.3,8,8,0,0,0,5.7,1.9,10.1,10.1,0,0,0,7.9-3.7l5.4,5.3a15,15,0,0,1-6.1,4.6,22,22,0,0,1-8,1.4A19.4,19.4,0,0,1,466,67.5Z"/><path class="cls-2" d="M502.6,43.6h-10l1.5-7.2H523l-1.5,7.2h-9.8l-5,25.1h-9.2Z"/><path class="cls-2" d="M526.4,36.4h9.2l-6.5,32.3H520Z"/><path class="cls-2" d="M544.5,67.5A13.4,13.4,0,0,1,537,55.1a18.9,18.9,0,0,1,2.6-10,18.1,18.1,0,0,1,7.1-6.9,22.2,22.2,0,0,1,10.4-2.5,18.7,18.7,0,0,1,8.5,1.8,12.6,12.6,0,0,1,5.6,5.1,13.8,13.8,0,0,1,2,7.3,19.9,19.9,0,0,1-2.6,10,18.8,18.8,0,0,1-7.1,6.9A21.4,21.4,0,0,1,553,69.3,19,19,0,0,1,544.5,67.5Zm14.7-7.3a10,10,0,0,0,3.5-4.1,13.2,13.2,0,0,0,1.3-5.6,7,7,0,0,0-2-5.2,7.4,7.4,0,0,0-5.6-2,9.5,9.5,0,0,0-5.4,1.5,10,10,0,0,0-3.5,4.1,11.8,11.8,0,0,0-1.3,5.6,7.2,7.2,0,0,0,2,5.3,7.8,7.8,0,0,0,5.6,1.9A10,10,0,0,0,559.2,60.2Z"/><path class="cls-2" d="M611.7,36.4l-6.4,32.3h-7.5L587.1,50.9l-3.5,17.8h-9l6.5-32.3h7.5L599.3,54l3.5-17.6Z"/><path class="cls-2" d="M0,0V105H642.4V0ZM631.6,94.2H10.8V10.8H631.6Z"/></g></g></svg>